<svg viewBox="0 0 115 109" fill="none" xmlns="http://www.w3.org/2000/svg">
<path d="M17.1455 40.3451L11.7161 28.629L0 23.1995L11.7161 17.7701L17.1455 6.05404L22.5749 17.7701L34.291 23.1995L22.5749 28.629L17.1455 40.3451ZM91.4427 23.1995L87.8707 15.3412L80.0124 11.7692L87.8707 8.19723L91.4427 0.338867L95.0147 8.19723L102.873 11.7692L95.0147 15.3412L91.4427 23.1995ZM102.873 46.0602L99.3011 38.2019L91.4427 34.6299L99.3011 31.0579L102.873 23.1995L106.445 31.0579L114.303 34.6299L106.445 38.2019L102.873 46.0602ZM57.1517 68.9209C52.389 68.9209 48.3408 67.254 45.007 63.9201C41.6731 60.5863 40.0062 56.538 40.0062 51.7754V17.4844C40.0062 12.7217 41.6731 8.67349 45.007 5.33964C48.3408 2.00579 52.389 0.338867 57.1517 0.338867C61.9143 0.338867 65.9626 2.00579 69.2964 5.33964C72.6303 8.67349 74.2972 12.7217 74.2972 17.4844V51.7754C74.2972 56.538 72.6303 60.5863 69.2964 63.9201C65.9626 67.254 61.9143 68.9209 57.1517 68.9209ZM51.4365 108.927V91.3529C41.5302 90.0194 33.3385 85.5901 26.8613 78.0652C20.3841 70.5402 17.1455 61.7769 17.1455 51.7754H28.5758C28.5758 59.6814 31.3629 66.4196 36.9371 71.9899C42.5075 77.5641 49.2457 80.3512 57.1517 80.3512C65.0577 80.3512 71.7978 77.5641 77.372 71.9899C82.9423 66.4196 85.7275 59.6814 85.7275 51.7754H97.1579C97.1579 61.7769 93.9193 70.5402 87.4421 78.0652C80.9649 85.5901 72.7732 90.0194 62.8669 91.3529V108.927H51.4365ZM57.1517 57.4906C58.771 57.4906 60.1293 56.9419 61.2266 55.8446C62.3201 54.7511 62.8669 53.3947 62.8669 51.7754V17.4844C62.8669 15.8651 62.3201 14.5068 61.2266 13.4095C60.1293 12.316 58.771 11.7692 57.1517 11.7692C55.5324 11.7692 54.176 12.316 53.0825 13.4095C51.9852 14.5068 51.4365 15.8651 51.4365 17.4844V51.7754C51.4365 53.3947 51.9852 54.7511 53.0825 55.8446C54.176 56.9419 55.5324 57.4906 57.1517 57.4906Z" fill="currentColor"/>
</svg>
