<?xml version="1.0" standalone="no"?>
<!DOCTYPE svg PUBLIC "-//W3C//DTD SVG 20010904//EN"
 "http://www.w3.org/TR/2001/REC-SVG-20010904/DTD/svg10.dtd">
<svg version="1.0" xmlns="http://www.w3.org/2000/svg"
 width="421.000000pt" height="421.000000pt" viewBox="0 0 421.000000 421.000000"
 preserveAspectRatio="xMidYMid meet">
<metadata>
Created by potrace 1.14, written by Peter Selinger 2001-2017
</metadata>
<g transform="translate(0.000000,421.000000) scale(0.100000,-0.100000)"
fill="#000000" stroke="none">
<path d="M1558 3894 c-276 -173 -499 -314 -496 -314 4 0 94 -25 200 -55 106
-31 218 -63 248 -72 30 -8 76 -22 101 -29 25 -8 54 -16 65 -19 10 -2 129 -36
262 -74 l244 -71 301 192 c166 105 353 225 415 265 62 40 116 73 121 73 5 0
11 4 13 8 2 4 31 25 66 46 35 21 60 42 55 46 -7 6 -270 83 -703 205 -85 24
-208 59 -273 78 l-117 34 -502 -313z"/>
<path d="M3830 3960 c-58 -38 -152 -99 -210 -135 -137 -86 -213 -135 -333
-212 l-97 -63 35 -65 c34 -61 83 -179 91 -218 2 -10 5 -26 8 -35 30 -99 39
-285 20 -414 -79 -537 -551 -932 -1094 -913 -121 4 -138 7 -235 31 -219 56
-472 227 -592 402 -24 34 -43 52 -53 49 -12 -3 -315 -193 -645 -405 -132 -85
-152 -97 -303 -192 -83 -52 -151 -98 -152 -101 0 -4 48 -8 108 -9 59 -1 141
-3 182 -5 182 -8 481 -19 802 -30 90 -3 208 -7 263 -10 135 -6 427 -16 658
-24 24 -1 32 -9 54 -58 37 -86 46 -106 108 -248 31 -71 63 -143 70 -160 26
-58 276 -627 441 -1002 31 -73 59 -131 61 -130 1 2 21 82 43 178 22 96 49 213
60 260 12 48 22 95 25 105 2 11 22 98 44 194 23 96 43 184 45 195 3 11 27 119
56 240 63 272 154 665 214 930 25 110 68 297 96 415 60 259 120 518 125 543 3
15 54 231 120 517 2 8 13 56 24 105 29 126 59 253 70 298 5 20 6 37 2 37 -3
-1 -53 -32 -111 -70z"/>
<path d="M2582 3163 l-354 -226 -346 100 c-208 60 -351 97 -357 92 -11 -11
-13 -247 -3 -302 48 -240 213 -451 433 -553 238 -110 512 -94 736 42 143 86
292 272 325 404 2 8 11 42 20 75 27 91 24 276 -5 380 -19 70 -70 187 -89 207
-4 4 -166 -95 -360 -219z"/>
</g>
</svg>
